<svg id="Lager_1" data-name="Lager 1" xmlns="http://www.w3.org/2000/svg" viewBox="0 0 1024 768"><defs><style>.cls-1{fill:#8e8e8e;}.cls-2{font-size:18.19px;font-family:EdwardianScriptITC, EdwardianScriptITC;letter-spacing:0.1em;}.cls-2,.cls-6{fill:#d8d8d8;}.cls-3{letter-spacing:0.1em;}.cls-4{letter-spacing:0.1em;}.cls-5{letter-spacing:0.09em;}</style></defs><title>Rityta 1</title><path class="cls-1" d="M624,384A112,112,0,1,1,512,272,112,112,0,0,1,624,384Z"/><text class="cls-2" transform="translate(423.08 364.45)">o<tspan class="cls-3" x="11.8" y="0">r</tspan><tspan class="cls-4" x="19.64" y="0">i</tspan><tspan class="cls-5" x="25.72" y="0">g</tspan><tspan x="37.6" y="0">inal</tspan></text><path class="cls-6" d="M476.91,420.69H463.39V396.82c0-1.76.08-4.89.27-9.4-.72,2.8-1.7,5.93-2.91,9.4l-8.25,23.87h-6L438,396.82q-1.35-3.85-2.91-9.47.27,4.93.27,9.47v23.87H424.24V373.36h16.83l9.94,29,9.6-29h16.3Z"/><path class="cls-6" d="M512.54,358.6a12,12,0,0,1-3.43,8.73,11.54,11.54,0,0,1-8.56,3.49,12.19,12.19,0,0,1-8.72-3.43,11,11,0,0,1-3.61-8.32,12.32,12.32,0,0,1,3.44-9.13,12.17,12.17,0,0,1,9-3.44,11.27,11.27,0,0,1,8.48,3.5A11.84,11.84,0,0,1,512.54,358.6Z"/><rect class="cls-6" x="493.75" y="386.88" width="13.39" height="33.81"/><path class="cls-6" d="M560.14,420.69H546.75v-20c0-4-1.5-6-4.52-6q-5.41,0-5.41,7v19H523.43V386.88h13.39v4.93a14,14,0,0,1,11.39-5.74q7.86,0,10.65,5.74c.86,1.76,1.28,4.83,1.28,9.2Z"/><path class="cls-6" d="M600.92,419.4a35.43,35.43,0,0,1-11.84,2.1q-9.14,0-11.09-6.22a23.08,23.08,0,0,1-.61-6.29V393h-4.73v-6.15h4.73V378.7l13.39-2v10.15h9V393h-9v11.9q0,9.27,4.7,9.26a9.24,9.24,0,0,0,3.81-.88Z"/><path class="cls-1" d="M501.93,348.18c-.84,1.18,4.62,1.61,7.18,6.59,2.15,4.16-1.7,8.18,0,9.26s5.72-5.71,2.85-11.11C509.24,347.79,502.78,347,501.93,348.18Z"/></svg>