<svg id="Lager_1" data-name="Lager 1" xmlns="http://www.w3.org/2000/svg" viewBox="0 0 1024 768"><defs><style>.cls-1{fill:#8e8e8e;}.cls-2{font-size:26.63px;font-family:EdwardianScriptITC, EdwardianScriptITC;letter-spacing:0.1em;}.cls-2,.cls-6{fill:#d8d8d8;}.cls-3{letter-spacing:0.1em;}.cls-4{letter-spacing:0.1em;}.cls-5{letter-spacing:0.09em;}</style></defs><title>Rityta 1</title><path class="cls-1" d="M676,384A164,164,0,1,1,512,220,164,164,0,0,1,676,384Z"/><text class="cls-2" transform="translate(381.8 355.37)">o<tspan class="cls-3" x="17.29" y="0">r</tspan><tspan class="cls-4" x="28.77" y="0">i</tspan><tspan class="cls-5" x="37.66" y="0">g</tspan><tspan x="55.05" y="0">inal</tspan></text><path class="cls-6" d="M460.62,437.72H440.81v-35q0-3.87.4-13.76-1.59,6.14-4.25,13.76l-12.09,35h-8.81l-12.38-35c-1.31-3.76-2.74-8.38-4.25-13.86q.39,7.23.4,13.86v35H383.49v-69.3h24.65l14.56,42.47,14.05-42.47h23.87Z"/><path class="cls-6" d="M512.8,346.81a17.55,17.55,0,0,1-5,12.78,16.89,16.89,0,0,1-12.53,5.11,17.8,17.8,0,0,1-12.77-5,16.14,16.14,0,0,1-5.28-12.18q0-8.34,5-13.37c3.35-3.34,7.76-5,13.21-5a16.56,16.56,0,0,1,12.43,5.12A17.4,17.4,0,0,1,512.8,346.81Z"/><rect class="cls-6" x="485.27" y="388.21" width="19.6" height="49.51"/><path class="cls-6" d="M582.49,437.72h-19.6V408.41q0-8.81-6.62-8.81-7.93,0-7.93,10.3v27.82h-19.6V388.21h19.6v7.23Q555,387,565,387q11.52,0,15.59,8.41,1.89,3.87,1.88,13.47Z"/><path class="cls-6" d="M642.2,435.84a51.78,51.78,0,0,1-17.33,3.07q-13.36,0-16.24-9.11a33.6,33.6,0,0,1-.89-9.21V397.23h-6.92v-9h6.92v-12l19.61-2.87v14.85h13.16v9H627.35v17.42q0,13.58,6.88,13.56a13.83,13.83,0,0,0,5.58-1.28Z"/><path class="cls-1" d="M497.25,331.54c-1.23,1.74,6.76,2.36,10.53,9.66,3.14,6.09-2.49,12,0,13.55s8.36-8.36,4.17-16.27C508,331,498.49,329.8,497.25,331.54Z"/></svg>